<?xml version="1.0" standalone="no"?>
<!DOCTYPE svg PUBLIC "-//W3C//DTD SVG 20010904//EN"
 "http://www.w3.org/TR/2001/REC-SVG-20010904/DTD/svg10.dtd">
<svg version="1.0" xmlns="http://www.w3.org/2000/svg"
 width="373.000000pt" height="338.000000pt" viewBox="0 0 373.000000 338.000000"
 preserveAspectRatio="xMidYMid meet">

<g transform="translate(0.000000,338.000000) scale(0.100000,-0.100000)"
fill="#000000" stroke="none">
<path d="M1330 3350 c-45 -12 -87 -38 -105 -66 -9 -15 -122 -340 -250 -723
l-232 -696 -294 -5 c-183 -4 -304 -10 -320 -17 -14 -6 -39 -27 -57 -47 -71
-81 -47 -200 52 -254 28 -15 70 -17 401 -17 365 0 371 0 412 23 31 16 50 36
67 70 13 26 97 269 187 540 90 270 166 492 169 492 3 0 196 -572 429 -1270
299 -900 430 -1279 447 -1300 64 -75 205 -66 259 17 10 14 122 339 250 722
l232 696 294 5 c323 5 329 7 382 70 51 61 47 147 -9 210 -53 58 -85 62 -486
58 -340 -3 -343 -3 -381 -27 -23 -14 -47 -41 -61 -70 -13 -25 -97 -268 -187
-538 -90 -271 -166 -493 -169 -493 -3 0 -196 572 -429 1270 -379 1138 -426
1274 -456 1305 -18 19 -36 35 -41 35 -5 0 -25 4 -44 9 -19 4 -46 5 -60 1z"/>
</g>
</svg>
