<svg xmlns="http://www.w3.org/2000/svg" width="459" height="459" viewBox="0 0 459 459" version="1.1"><path d="M 173.500 63.856 C 171.300 64.880, 168.600 66.723, 167.500 67.952 C 166.315 69.276, 155.883 98.991, 141.911 140.843 L 118.322 211.500 88.411 212 C 63.118 212.423, 58.037 212.755, 55.500 214.153 C 53.850 215.061, 51.375 217.311, 50 219.153 C 47.933 221.920, 47.500 223.626, 47.500 229 C 47.500 234.145, 47.970 236.159, 49.757 238.664 C 50.998 240.404, 53.953 242.767, 56.323 243.914 C 60.439 245.907, 62.190 246, 95.566 245.994 C 117.839 245.991, 131.933 245.591, 134.453 244.891 C 136.627 244.288, 139.818 242.378, 141.545 240.647 C 144.275 237.910, 146.948 230.700, 162.084 185.250 C 171.655 156.512, 179.715 133, 179.996 133 C 180.276 133, 199.559 190.165, 222.846 260.034 C 252.904 350.216, 265.893 387.908, 267.622 389.962 C 268.961 391.554, 271.972 393.588, 274.313 394.482 C 277.609 395.741, 279.524 395.892, 282.805 395.155 C 285.134 394.632, 288.150 393.476, 289.506 392.588 C 290.863 391.699, 292.675 389.900, 293.533 388.590 C 294.391 387.280, 305.573 354.774, 318.380 316.354 L 341.666 246.500 371.583 246 C 398.879 245.544, 401.780 245.330, 404.699 243.564 C 406.459 242.500, 408.934 240.250, 410.199 238.564 C 412.050 236.099, 412.500 234.229, 412.500 229 C 412.500 223.418, 412.104 221.983, 409.698 218.838 C 408.157 216.824, 405.111 214.461, 402.928 213.588 C 399.568 212.244, 393.632 212.001, 364.230 212.006 C 342.105 212.009, 328.065 212.409, 325.547 213.109 C 323.373 213.712, 320.182 215.622, 318.455 217.353 C 315.725 220.090, 313.052 227.300, 297.916 272.750 C 288.345 301.488, 280.285 325, 280.004 325 C 279.724 325, 260.454 267.874, 237.183 198.053 C 213.884 128.149, 193.962 69.951, 192.848 68.533 C 191.734 67.118, 189.626 65.347, 188.162 64.598 C 186.698 63.849, 183.700 62.957, 181.500 62.616 C 178.649 62.174, 176.351 62.530, 173.500 63.856" stroke="none" fill="#fc1d6c" fill-rule="evenodd"/><path d="M 16.479 1.871 C 14.267 2.875, 10.361 6.029, 7.799 8.878 C 5.187 11.784, 2.448 16.146, 1.563 18.809 C 0.144 23.084, 0.012 44.263, 0.243 230.529 L 0.500 437.500 2.776 442.120 C 4.029 444.662, 6.931 448.601, 9.227 450.874 C 11.621 453.243, 15.678 455.858, 18.738 457.003 C 24.009 458.975, 26.633 459, 230 459 C 433.367 459, 435.991 458.975, 441.262 457.003 C 444.322 455.858, 448.379 453.243, 450.773 450.874 C 453.069 448.601, 455.971 444.662, 457.224 442.120 L 459.500 437.500 459.759 229.706 L 460.019 21.912 457.351 16.465 C 455.884 13.469, 453.068 9.379, 451.092 7.377 C 449.116 5.375, 445.700 2.906, 443.500 1.890 C 439.651 0.114, 431.575 0.044, 230 0.044 C 29.257 0.044, 20.332 0.120, 16.479 1.871 M 0.491 229 C 0.491 343.125, 0.607 389.813, 0.750 332.750 C 0.893 275.688, 0.893 182.313, 0.750 125.250 C 0.607 68.188, 0.491 114.875, 0.491 229 M 173.500 63.856 C 171.300 64.880, 168.600 66.723, 167.500 67.952 C 166.315 69.276, 155.883 98.991, 141.911 140.843 L 118.322 211.500 88.411 212 C 63.118 212.423, 58.037 212.755, 55.500 214.153 C 53.850 215.061, 51.375 217.311, 50 219.153 C 47.933 221.920, 47.500 223.626, 47.500 229 C 47.500 234.145, 47.970 236.159, 49.757 238.664 C 50.998 240.404, 53.953 242.767, 56.323 243.914 C 60.439 245.907, 62.190 246, 95.566 245.994 C 117.839 245.991, 131.933 245.591, 134.453 244.891 C 136.627 244.288, 139.818 242.378, 141.545 240.647 C 144.275 237.910, 146.948 230.700, 162.084 185.250 C 171.655 156.512, 179.715 133, 179.996 133 C 180.276 133, 199.559 190.165, 222.846 260.034 C 252.904 350.216, 265.893 387.908, 267.622 389.962 C 268.961 391.554, 271.972 393.588, 274.313 394.482 C 277.609 395.741, 279.524 395.892, 282.805 395.155 C 285.134 394.632, 288.150 393.476, 289.506 392.588 C 290.863 391.699, 292.675 389.900, 293.533 388.590 C 294.391 387.280, 305.573 354.774, 318.380 316.354 L 341.666 246.500 371.583 246 C 398.879 245.544, 401.780 245.330, 404.699 243.564 C 406.459 242.500, 408.934 240.250, 410.199 238.564 C 412.050 236.099, 412.500 234.229, 412.500 229 C 412.500 223.418, 412.104 221.983, 409.698 218.838 C 408.157 216.824, 405.111 214.461, 402.928 213.588 C 399.568 212.244, 393.632 212.001, 364.230 212.006 C 342.105 212.009, 328.065 212.409, 325.547 213.109 C 323.373 213.712, 320.182 215.622, 318.455 217.353 C 315.725 220.090, 313.052 227.300, 297.916 272.750 C 288.345 301.488, 280.285 325, 280.004 325 C 279.724 325, 260.454 267.874, 237.183 198.053 C 213.884 128.149, 193.962 69.951, 192.848 68.533 C 191.734 67.118, 189.626 65.347, 188.162 64.598 C 186.698 63.849, 183.700 62.957, 181.500 62.616 C 178.649 62.174, 176.351 62.530, 173.500 63.856" stroke="none" fill="#fccbcb" fill-rule="evenodd"/></svg>