<?xml version="1.0" encoding="UTF-8"?>
<svg version="1.1" xmlns="http://www.w3.org/2000/svg" width="373" height="338">
<path d="M0 0 C5.70135312 4.18019378 7.38802214 9.96331024 9.49139404 16.39736938 C10.00492286 17.92580933 10.00492286 17.92580933 10.528826 19.48512685 C11.67343599 22.90040205 12.80296489 26.32047354 13.93261719 29.74072266 C14.75004191 32.19006021 15.56837798 34.63909378 16.38755798 37.08784485 C18.37962609 43.04834784 20.36049592 49.01251465 22.33761087 54.97799207 C24.63987271 61.92310492 26.9532507 68.8644982 29.26710823 75.80575459 C33.39417564 88.18764342 37.51120311 100.57284712 41.62255859 112.95996094 C45.61369603 124.98483795 49.61177466 137.00737679 53.61767578 149.02734375 C53.86454552 149.76809582 54.11141526 150.50884789 54.3657659 151.272047 C54.61220702 152.01150897 54.85864814 152.75097095 55.11255717 153.51284087 C55.6087268 155.00164014 56.1048928 156.49044062 56.60105515 157.97924232 C56.96807425 159.08053221 56.96807425 159.08053221 57.34250788 160.20407037 C61.1581676 171.65448681 64.9671962 183.10710994 68.77566253 194.55992056 C70.15692259 198.71331679 71.53923015 202.86636272 72.92230693 207.01915433 C75.31998287 214.21836985 77.713153 221.41905969 80.10122871 228.62146568 C80.89627277 231.01698914 81.69285361 233.41200317 82.49104881 235.8064785 C83.57663683 239.06400537 84.65669915 242.32331145 85.73529053 245.5831604 C86.05551076 246.5398574 86.37573099 247.49655441 86.70565486 248.48224223 C86.9923099 249.35249738 87.27896493 250.22275253 87.57430649 251.11937904 C87.8242725 251.87193242 88.07423851 252.62448579 88.33177924 253.39984381 C88.859375 255.36328125 88.859375 255.36328125 88.859375 258.36328125 C89.519375 258.36328125 90.179375 258.36328125 90.859375 258.36328125 C90.97008677 257.81982339 91.08079855 257.27636553 91.19486523 256.71643925 C92.38838712 251.08211097 93.94115111 245.66774249 95.76098633 240.20678711 C96.04585403 239.34050186 96.33072174 238.47421661 96.6242218 237.5816803 C97.55848639 234.74555135 98.49944767 231.91170712 99.44140625 229.078125 C100.09926307 227.09235943 100.75703243 225.10656489 101.41471863 223.1207428 C102.79085064 218.96993864 104.17081503 214.82043023 105.55297852 210.67163086 C107.31830293 205.37036764 109.06974534 200.06463006 110.81779957 194.75765133 C112.17044225 190.65876388 113.53261159 186.56308875 114.89740562 182.46823311 C115.54707356 180.51386369 116.19331659 178.55835213 116.83597755 176.6016674 C117.73719922 173.86113375 118.65175085 171.12538993 119.56958008 168.39038086 C119.82898376 167.591716 120.08838745 166.79305115 120.35565186 165.97018433 C122.57760877 159.42527085 125.14217736 152.75287065 131.18737793 148.89562988 C135.13893415 147.24661937 138.40150375 146.79585741 142.61132812 146.84570312 C143.72253273 146.83518921 143.72253273 146.83518921 144.85618591 146.82446289 C147.28472304 146.80697703 149.71207775 146.81847108 152.140625 146.83203125 C153.84021222 146.82933361 155.53979792 146.82544892 157.23937988 146.82043457 C160.79336305 146.8145523 164.34694281 146.82306115 167.90087891 146.84179688 C172.44373946 146.86458595 176.98565461 146.851456 181.52848053 146.82750702 C185.03565523 146.81301444 188.54260784 146.8176708 192.04978943 146.82801819 C193.72423923 146.83067593 195.39870956 146.82744939 197.07313538 146.81809998 C199.41843651 146.80787673 201.76223214 146.82351358 204.10742188 146.84570312 C204.7912645 146.8376062 205.47510712 146.82950928 206.17967224 146.82116699 C211.53490018 146.91446873 214.53836449 148.41464462 218.859375 151.36328125 C222.99972 156.70214718 224.30876558 160.62242253 223.859375 167.36328125 C221.96322415 173.15153122 219.28978262 177.20907147 214.07183838 180.48580933 C211.23520758 181.61082857 208.94848686 181.60315147 205.89746094 181.59033203 C204.09604645 181.59010544 204.09604645 181.59010544 202.25823975 181.58987427 C200.32056732 181.57439041 200.32056732 181.57439041 198.34375 181.55859375 C197.00425427 181.55486159 195.66475579 181.55201557 194.32525635 181.55001831 C190.80709235 181.54239782 187.2890946 181.52276312 183.77099609 181.50061035 C180.17808277 181.48011768 176.58514247 181.47100929 172.9921875 181.4609375 C165.94784883 181.43951559 158.90362279 181.4053989 151.859375 181.36328125 C151.49106316 183.19674355 151.49106316 183.19674355 151.11531067 185.06724548 C149.74467636 191.21387548 147.75388261 197.13033147 145.7644043 203.09985352 C145.14690811 204.96986526 145.14690811 204.96986526 144.51693726 206.87765503 C143.39512853 210.27365052 142.26755392 213.66770297 141.13829398 217.06122708 C140.43141964 219.18622328 139.7257515 221.3116162 139.02048683 223.43714714 C136.55558344 230.86552227 134.0857476 238.29223746 131.61157227 245.7175293 C129.31208861 252.61901717 127.02386909 259.52417032 124.74076718 266.4310928 C122.77363764 272.38034864 120.79837178 278.3268629 118.81689388 284.27135509 C117.6364016 287.8133682 116.45920185 291.35639092 115.29031944 294.9022541 C113.98613766 298.8575165 112.66509055 302.80694884 111.3425293 306.75610352 C110.96156601 307.91944717 110.58060272 309.08279083 110.18809509 310.28138733 C105.08492048 325.39618069 105.08492048 325.39618069 98.609375 329.86328125 C93.70526861 332.24618761 88.86818525 332.22757145 83.68359375 330.73828125 C77.31274387 328.05076642 74.48681957 323.2214201 71.86898553 317.01539171 C70.90539025 314.38686014 70.01464086 311.74343346 69.14506531 309.08232117 C68.80594189 308.07304859 68.46681847 307.063776 68.11741859 306.0239194 C66.98975759 302.65941117 65.87711126 299.29013485 64.7644043 295.9206543 C63.95668368 293.50043066 63.14805128 291.08051117 62.33857727 288.66087341 C60.37477947 282.78274956 58.42071095 276.90146981 56.47115245 271.01861038 C54.20016 264.16723864 51.91801111 257.31960003 49.6354029 250.47209129 C45.56435039 238.25824783 41.50332492 226.04109431 37.44799805 213.82202148 C33.51220838 201.96315695 29.56945958 190.10663695 25.61889648 178.25268555 C25.37527646 177.52168263 25.13165644 176.79067972 24.880654 176.0375252 C24.63745424 175.30778732 24.39425449 174.57804943 24.14368504 173.82619828 C23.65403014 172.35694319 23.16437887 170.88768689 22.67473125 169.41842937 C22.43325813 168.69385496 22.19178501 167.96928055 21.94299452 167.22274933 C18.17780035 155.92372996 14.41923631 144.6225043 10.66123694 133.32109034 C9.29882472 129.22423956 7.93536596 125.1277388 6.57113781 121.03149237 C4.20699815 113.93288644 1.84736498 106.83281001 -0.50717354 99.73101234 C-1.29093064 97.3693501 -2.07622433 95.00819719 -2.86313248 92.64758301 C-3.93334037 89.4361965 -4.99802222 86.22303156 -6.06123352 83.00932312 C-6.37688068 82.06634532 -6.69252784 81.12336752 -7.01774007 80.15181464 C-7.44157249 78.86488234 -7.44157249 78.86488234 -7.87396717 77.55195141 C-8.12035334 76.81013754 -8.36673952 76.06832367 -8.62059194 75.3040306 C-9.140625 73.36328125 -9.140625 73.36328125 -9.140625 70.36328125 C-9.800625 70.36328125 -10.460625 70.36328125 -11.140625 70.36328125 C-11.25133677 70.90673911 -11.36204855 71.45019697 -11.47611523 72.01012325 C-12.66963712 77.64445153 -14.22240111 83.05882001 -16.04223633 88.51977539 C-16.32710403 89.38606064 -16.61197174 90.25234589 -16.9054718 91.1448822 C-17.83973639 93.98101115 -18.78069767 96.81485538 -19.72265625 99.6484375 C-20.38051307 101.63420307 -21.03828243 103.61999761 -21.69596863 105.6058197 C-23.07210064 109.75662386 -24.45206503 113.90613227 -25.83422852 118.05493164 C-27.59955293 123.35619486 -29.35099534 128.66193244 -31.09904957 133.96891117 C-32.45169225 138.06779862 -33.81386159 142.16347375 -35.17865562 146.25832939 C-35.82832356 148.21269881 -36.47456659 150.16821037 -37.11722755 152.1248951 C-38.01844922 154.86542875 -38.93300085 157.60117257 -39.85083008 160.33618164 C-40.11023376 161.1348465 -40.36963745 161.93351135 -40.63690186 162.75637817 C-42.85885877 169.30129165 -45.42342736 175.97369185 -51.46862793 179.83093262 C-55.42018415 181.47994313 -58.68275375 181.93070509 -62.89257812 181.88085938 C-63.6333812 181.88786865 -64.37418427 181.89487793 -65.13743591 181.90209961 C-67.56597304 181.91958547 -69.99332775 181.90809142 -72.421875 181.89453125 C-74.12146222 181.89722889 -75.82104792 181.90111358 -77.52062988 181.90612793 C-81.07461305 181.9120102 -84.62819281 181.90350135 -88.18212891 181.88476562 C-92.72498946 181.86197655 -97.26690461 181.8751065 -101.80973053 181.89905548 C-105.31690523 181.91354806 -108.82385784 181.9088917 -112.33103943 181.89854431 C-114.00548923 181.89588657 -115.67995956 181.89911311 -117.35438538 181.90846252 C-119.69968651 181.91868577 -122.04348214 181.90304892 -124.38867188 181.88085938 C-125.0725145 181.8889563 -125.75635712 181.89705322 -126.46092224 181.90539551 C-131.8158478 181.81209904 -134.81782397 180.30780273 -139.140625 177.36328125 C-143.62153659 171.7031824 -144.63411597 167.51890033 -144.140625 160.36328125 C-142.1588169 155.14799678 -139.10940314 151.2340869 -134.35308838 148.23684692 C-131.51691876 147.11701803 -129.22747183 147.12342055 -126.17871094 147.13623047 C-124.37729645 147.13645706 -124.37729645 147.13645706 -122.53948975 147.13668823 C-120.60181732 147.15217209 -120.60181732 147.15217209 -118.625 147.16796875 C-117.28550427 147.17170091 -115.94600579 147.17454693 -114.60650635 147.17654419 C-111.08834235 147.18416468 -107.5703446 147.20379938 -104.05224609 147.22595215 C-100.45933277 147.24644482 -96.86639247 147.25555321 -93.2734375 147.265625 C-86.22909883 147.28704691 -79.18487279 147.3211636 -72.140625 147.36328125 C-71.89508377 146.14097305 -71.64954254 144.91866486 -71.39656067 143.65931702 C-70.02592636 137.51268702 -68.03513261 131.59623103 -66.0456543 125.62670898 C-65.63399017 124.38003448 -65.22232605 123.13335999 -64.79818726 121.84890747 C-63.67637853 118.45291198 -62.54880392 115.05885953 -61.41954398 111.66533542 C-60.71266964 109.54033922 -60.0070015 107.4149463 -59.30173683 105.28941536 C-56.83683344 97.86104023 -54.3669976 90.43432504 -51.89282227 83.0090332 C-49.59333861 76.10754533 -47.30511909 69.20239218 -45.02201718 62.2954697 C-43.05488764 56.34621386 -41.07962178 50.3996996 -39.09814388 44.45520741 C-37.9176516 40.9131943 -36.74045185 37.37017158 -35.57156944 33.8243084 C-34.26738766 29.869046 -32.94634055 25.91961366 -31.6237793 21.97045898 C-31.24281601 20.80711533 -30.86185272 19.64377167 -30.46934509 18.44517517 C-25.20785414 2.86147391 -25.20785414 2.86147391 -18.328125 -1.13671875 C-11.60872341 -3.96063236 -6.4066796 -3.21657674 0 0 Z " fill="#FE216F" transform="translate(146.140625,4.63671875)"/>
<path d="M0 0 C0.66 0.33 1.32 0.66 2 1 C-0.31 3.31 -2.62 5.62 -5 8 C-5.33 7.34 -5.66 6.68 -6 6 C-4 4 -2 2 0 0 Z " fill="#FE70A2" transform="translate(277,154)"/>
<path d="M0 0 C0.66 0.33 1.32 0.66 2 1 C-0.31 3.31 -2.62 5.62 -5 8 C-5.33 7.34 -5.66 6.68 -6 6 C-4 4 -2 2 0 0 Z " fill="#FE679D" transform="translate(127,4)"/>
</svg>
