<?xml version="1.0" standalone="no"?>
<!DOCTYPE svg PUBLIC "-//W3C//DTD SVG 20010904//EN"
 "http://www.w3.org/TR/2001/REC-SVG-20010904/DTD/svg10.dtd">
<svg version="1.0" xmlns="http://www.w3.org/2000/svg"
 width="459.000000pt" height="459.000000pt" viewBox="0 0 459.000000 459.000000"
 preserveAspectRatio="xMidYMid meet">

<g transform="translate(0.000000,459.000000) scale(0.100000,-0.100000)"
fill="#000000" stroke="none">
<path d="M220 4578 c-65 -15 -139 -68 -180 -130 l-35 -53 0 -2105 0 -2105 35
-53 c21 -32 57 -68 90 -90 l55 -37 2089 -3 2089 -2 51 23 c88 41 145 112 165
205 16 75 16 4048 0 4124 -24 110 -117 203 -227 227 -70 15 -4065 14 -4132 -1z
m1652 -644 c14 -7 35 -25 46 -39 12 -15 211 -596 444 -1296 233 -698 425
-1269 428 -1269 3 0 83 235 179 523 191 571 191 572 276 596 26 7 167 11 389
11 329 0 352 -1 391 -20 66 -32 90 -73 90 -150 0 -73 -20 -111 -78 -146 -29
-17 -58 -19 -331 -24 l-299 -5 -233 -699 c-128 -384 -240 -709 -249 -722 -21
-32 -57 -54 -107 -66 -53 -11 -116 10 -152 52 -17 21 -147 398 -448 1300 -232
698 -425 1270 -428 1270 -3 0 -83 -235 -179 -522 -191 -572 -191 -573 -276
-597 -26 -7 -167 -11 -389 -11 -329 0 -352 1 -391 20 -66 32 -90 73 -90 150 0
73 20 111 78 146 29 17 58 19 331 24 l299 5 236 707 c140 418 244 715 256 728
50 56 136 70 207 34z"/>
</g>
</svg>
